<svg xmlns="http://www.w3.org/2000/svg" viewBox="0 0 100 100" style="fill: rgb(102, 102, 102); height: 100%; width: 100%;"><path d="M50 100c-6 0-12-1-17-3-5-2-9-5-10-8-1-2-1-5 0-8 1-3 4-7 7-11l0 0c-6 6-11 8-15 8h0c-4 0-8-2-10-7-3-5-5-13-5-21 0-8 2-16 5-21 3-5 6-7 10-7 4 0 10 3 15 8l0 0c-4-4-6-7-7-11-1-3-1-6 0-8 1-4 5-6 10-8 5-2 11-3 17-3 6 0 12 1 17 3 5 2 9 5 10 8 1 2 1 5 0 8-1 3-4 7-7 11l0 0c6-6 11-8 15-8 5 0 9 3 11 9 2 5 4 12 4 20 0 7-1 14-4 20-3 6-7 9-11 9h0c-4 0-10-3-15-8l0 0c4 4 6 7 7 11 1 3 1 6 0 8-1 4-5 6-10 8-5 2-11 3-17 3Z"></path></svg>